<svg width="810" height="630" viewBox="0 0 810 630" fill="none" xmlns="http://www.w3.org/2000/svg">
<g clip-path="url(#clip0_1:144)">
<path d="M168.019 414.31C131.427 378.288 115.973 340.708 124.501 308.494C135.445 267.154 184.066 238.57 257.895 230.073L258.168 232.444C185.366 240.823 137.487 268.765 126.808 309.104C118.508 340.455 133.739 377.214 169.694 412.61L168.019 414.31Z" fill="#F0F0F0"/>
<path d="M521.067 542.177C475.399 542.177 425.771 535.39 376.478 522.34C315.519 506.202 259.627 481.843 214.843 451.897L216.169 449.913C260.737 479.715 316.382 503.962 377.088 520.033C431.948 534.557 487.218 541.286 536.905 539.51L536.991 541.895C531.744 542.083 526.436 542.177 521.067 542.177Z" fill="#F0F0F0"/>
<path d="M625.837 527.169L625.073 524.908C665.917 511.099 691.464 488.853 698.951 460.573C708.467 424.624 687.792 382.907 640.732 343.106C593.432 303.104 525.224 269.912 448.67 249.646L449.281 247.338C526.169 267.694 594.709 301.058 642.272 341.284C690.076 381.713 711.024 424.294 701.258 461.184C693.556 490.274 667.476 513.091 625.837 527.169Z" fill="#F0F0F0"/>
<path d="M250.79 543.174C161.053 503.375 91.9049 451.741 56.0829 397.781L58.0709 396.461C93.6452 450.047 162.431 501.375 251.757 540.993L250.79 543.174Z" fill="#F0F0F0"/>
<path d="M566.296 612.123C557.04 612.123 547.626 611.916 538.054 611.503L538.156 609.119C609.589 612.212 672.616 603.663 720.435 584.393L721.328 586.607C679.614 603.415 626.446 612.123 566.296 612.123Z" fill="#F0F0F0"/>
<path d="M514.229 232.213C499.398 227.384 484.142 222.888 468.886 218.849C381.094 195.607 294.793 187.355 219.311 194.99L219.071 192.615C294.835 184.955 381.431 193.227 469.497 216.542C484.796 220.592 500.095 225.101 514.968 229.944L514.229 232.213Z" fill="#F0F0F0"/>
<path d="M111.936 417.89C75.3445 381.868 59.8899 344.288 68.418 312.074C79.3624 270.733 127.983 242.15 201.812 233.653L202.085 236.024C129.283 244.402 81.4045 272.344 70.7253 312.684C62.4255 344.035 77.6558 380.794 113.611 416.189L111.936 417.89Z" fill="#F0F0F0"/>
<path d="M464.984 545.756C419.316 545.756 369.689 538.97 320.395 525.92C259.436 509.782 203.544 485.423 158.76 455.477L160.086 453.493C204.654 483.295 260.299 507.542 321.005 523.612C375.865 538.137 431.135 544.866 480.822 543.09L480.908 545.474C475.661 545.663 470.353 545.757 464.984 545.756Z" fill="#F0F0F0"/>
<path d="M569.754 530.749L568.99 528.488C609.834 514.678 635.381 492.432 642.868 464.153C652.385 428.204 631.709 386.486 584.649 346.686C537.349 306.684 469.141 273.492 392.588 253.225L393.198 250.918C470.086 271.273 538.626 304.637 586.189 344.864C633.993 385.293 654.941 427.874 645.175 464.764C637.474 493.854 611.393 516.671 569.754 530.749Z" fill="#F0F0F0"/>
<path d="M194.707 546.754C104.971 506.955 35.822 455.32 0 401.361L1.98799 400.041C37.5624 453.627 106.348 504.955 195.674 544.573L194.707 546.754Z" fill="#F0F0F0"/>
<path d="M510.213 615.703C500.957 615.703 491.543 615.496 481.971 615.083L482.073 612.699C553.507 615.791 616.533 607.243 664.352 587.972L665.245 590.186C623.531 606.995 570.364 615.703 510.213 615.703Z" fill="#F0F0F0"/>
<path d="M458.147 235.793C443.315 230.964 428.059 226.468 412.803 222.429C325.011 199.187 238.71 190.935 163.228 198.57L162.988 196.195C238.752 188.535 325.348 196.807 413.414 220.121C428.713 224.172 444.012 228.681 458.885 233.524L458.147 235.793Z" fill="#F0F0F0"/>
<path d="M40.6767 353.969C57.8265 334.74 85.1832 323.021 109.975 330.037C87.1035 346.222 70.6945 369.975 63.6509 397.094C60.9724 407.563 59.0833 419.485 50.3771 425.886C44.96 429.869 37.7822 430.82 31.1203 429.913C24.4581 429.006 18.1587 426.415 11.9444 423.848L10.2722 423.993C15.0799 398.68 23.5269 373.197 40.6767 353.969Z" fill="#F2F2F2"/>
<path d="M109.899 330.572C89.1716 335.59 70.5525 347.012 56.6864 363.215C53.6393 366.65 51.1529 370.544 49.3184 374.754C47.6639 378.912 47.1532 383.437 47.8392 387.86C48.3959 391.996 49.4445 396.163 48.9861 400.362C48.7195 402.509 48.0023 404.574 46.8815 406.424C45.7606 408.273 44.2614 409.865 42.4822 411.095C38.1288 414.274 32.8926 415.699 27.7237 416.914C21.9846 418.264 16.0021 419.575 11.3238 423.39C10.757 423.852 10.0731 422.945 10.6391 422.484C18.7785 415.848 30.0904 416.7 39.0959 411.88C43.298 409.631 46.8478 406.102 47.7109 401.259C48.4656 397.025 47.388 392.727 46.7881 388.544C46.0556 384.24 46.3883 379.821 47.757 375.675C49.3712 371.386 51.7036 367.403 54.6542 363.896C61.171 355.895 68.9052 348.969 77.5736 343.371C87.4313 336.927 98.3187 332.217 109.765 329.444C110.473 329.273 110.603 330.402 109.899 330.572L109.899 330.572Z" fill="white"/>
<path d="M60.8441 357.735C58.4415 355.04 57.0752 351.578 56.9893 347.968C56.9034 344.358 58.1034 340.835 60.3751 338.029C60.8368 337.462 61.7385 338.153 61.2763 338.72C59.156 341.33 58.0385 344.611 58.1253 347.973C58.2122 351.334 59.4978 354.554 61.75 357.05C62.2388 357.594 61.3301 358.275 60.8441 357.735H60.8441Z" fill="white"/>
<path d="M47.2806 385.8C54.6458 386.289 61.9247 383.984 67.666 379.345C68.2345 378.885 68.9186 379.791 68.3508 380.251C62.3673 385.067 54.7875 387.45 47.1243 386.925C46.3939 386.874 46.5542 385.749 47.2806 385.8Z" fill="white"/>
<path d="M87.6866 338.411C88.3989 339.648 89.4072 340.688 90.621 341.439C91.8347 342.189 93.216 342.627 94.6406 342.712C95.3712 342.753 95.2101 343.877 94.4842 343.836C92.9107 343.735 91.3859 343.25 90.043 342.424C88.7002 341.597 87.5801 340.455 86.7807 339.096C86.6946 338.974 86.6582 338.824 86.6787 338.676C86.6992 338.528 86.7752 338.394 86.8912 338.3C87.0116 338.21 87.1627 338.171 87.3117 338.192C87.4606 338.213 87.5953 338.291 87.6866 338.411V338.411Z" fill="white"/>
<path d="M145.166 409.859C144.709 409.846 144.252 409.833 143.79 409.828C137.645 409.687 131.499 410.045 125.413 410.9C124.941 410.958 124.464 411.025 123.995 411.097C109.353 413.312 95.25 418.226 82.4021 425.589C77.2923 428.524 72.4132 431.843 67.807 435.518C61.446 440.594 54.9528 446.603 47.5057 449.205C46.7318 449.485 45.9413 449.717 45.1387 449.899L10.5787 426.021C10.5274 425.928 10.4703 425.842 10.4186 425.748L8.99512 424.857C9.21944 424.651 9.45653 424.442 9.68085 424.236C9.81048 424.116 9.94784 424.001 10.0774 423.881C10.1663 423.803 10.2556 423.725 10.3313 423.649C10.3607 423.622 10.3906 423.597 10.4147 423.578C10.4904 423.502 10.5687 423.44 10.639 423.372C11.961 422.2 13.2936 421.036 14.6367 419.879C14.6422 419.871 14.6422 419.871 14.6553 419.868C24.9117 411.077 35.9921 403.065 47.9363 396.989C48.2957 396.806 48.6602 396.615 49.0354 396.444C54.4346 393.735 60.046 391.472 65.8138 389.677C68.9752 388.705 72.1839 387.893 75.4274 387.245C83.8113 385.586 92.404 385.257 100.89 386.269C117.807 388.288 133.89 395.696 144.375 408.846C144.643 409.183 144.904 409.514 145.166 409.859Z" fill="#F2F2F2"/>
<path d="M144.786 410.244C125.215 401.771 103.472 399.681 82.6449 404.27C78.1438 405.178 73.8141 406.79 69.815 409.047C65.9905 411.371 62.858 414.676 60.7432 418.621C58.6974 422.258 57.0261 426.216 54.1316 429.294C52.6266 430.847 50.8103 432.064 48.8018 432.866C46.7932 433.668 44.6379 434.036 42.477 433.947C37.087 433.864 32.0483 431.85 27.1892 429.708C21.7942 427.331 16.2281 424.776 10.1965 425.004C9.46563 425.032 9.46537 423.896 10.1951 423.869C20.6891 423.471 29.2082 430.962 39.3004 432.535C44.0097 433.269 48.9687 432.589 52.5733 429.242C55.7254 426.315 57.4524 422.235 59.492 418.534C61.4987 414.656 64.4244 411.329 68.0136 408.842C71.8848 406.39 76.1452 404.613 80.6124 403.59C90.6327 401.125 100.978 400.252 111.27 401.001C123.02 401.791 134.549 404.585 145.358 409.262C146.026 409.552 145.45 410.531 144.786 410.244V410.244Z" fill="white"/>
<path d="M89.264 402.398C88.9685 398.799 89.9618 395.212 92.0666 392.278C94.1714 389.344 97.2506 387.254 100.754 386.381C101.464 386.206 101.768 387.301 101.057 387.475C97.7933 388.282 94.9252 390.23 92.9708 392.966C91.0164 395.702 90.1045 399.047 90.3995 402.396C90.4628 403.124 89.3269 403.121 89.264 402.398Z" fill="white"/>
<path d="M61.5375 416.639C67.1236 421.464 74.3231 424.006 81.7003 423.759C82.4312 423.734 82.4317 424.869 81.7016 424.895C74.0243 425.138 66.5375 422.477 60.7355 417.443C60.1828 416.963 60.9878 416.162 61.5375 416.639V416.639Z" fill="white"/>
<path d="M122.331 403.129C122.155 404.545 122.334 405.983 122.851 407.313C123.368 408.643 124.207 409.824 125.294 410.75C125.852 411.223 125.047 412.024 124.492 411.554C123.296 410.526 122.371 409.22 121.796 407.752C121.222 406.284 121.015 404.697 121.195 403.131C121.2 402.981 121.261 402.84 121.366 402.734C121.472 402.629 121.613 402.567 121.762 402.562C121.913 402.563 122.057 402.623 122.163 402.729C122.27 402.835 122.33 402.979 122.331 403.129H122.331Z" fill="white"/>
<path d="M712.665 511.593C702.975 487.719 681.149 467.487 655.442 465.762C671.543 488.692 679.013 516.579 676.533 544.488C675.537 555.248 673.309 567.111 679.357 576.066C683.121 581.638 689.561 584.946 696.141 586.331C702.72 587.716 709.524 587.393 716.239 587.063L717.766 587.762C721.745 562.306 722.354 535.466 712.665 511.593Z" fill="#F2F2F2"/>
<path d="M655.333 466.291C673.168 477.984 686.865 495 694.479 514.921C696.194 519.18 697.227 523.683 697.54 528.264C697.701 532.737 696.661 537.17 694.528 541.105C692.614 544.813 690.226 548.385 689.246 552.495C688.776 554.606 688.757 556.792 689.191 558.911C689.625 561.03 690.502 563.033 691.764 564.789C694.796 569.246 699.249 572.348 703.708 575.23C708.66 578.43 713.854 581.676 716.978 586.841C717.356 587.466 718.305 586.842 717.927 586.217C712.492 577.232 701.551 574.232 694.69 566.666C691.488 563.136 689.331 558.619 690.146 553.768C690.858 549.526 693.317 545.841 695.288 542.103C697.425 538.295 698.597 534.022 698.701 529.657C698.622 525.075 697.764 520.539 696.164 516.245C692.715 506.519 687.759 497.396 681.476 489.21C674.358 479.828 665.687 471.733 655.839 465.274C655.229 464.875 654.728 465.895 655.333 466.291V466.291Z" fill="white"/>
<path d="M692.405 508.362C695.574 506.631 698.024 503.829 699.318 500.458C700.612 497.087 700.666 493.366 699.47 489.959C699.225 489.271 698.144 489.618 698.389 490.308C699.509 493.478 699.458 496.944 698.247 500.081C697.035 503.218 694.742 505.818 691.782 507.412C691.139 507.76 691.766 508.707 692.405 508.362V508.362Z" fill="white"/>
<path d="M695.747 539.352C688.646 537.338 682.565 532.721 678.717 526.422C678.336 525.797 677.387 526.421 677.767 527.045C681.784 533.592 688.122 538.384 695.516 540.464C696.221 540.662 696.448 539.549 695.747 539.352V539.352Z" fill="white"/>
<path d="M673.619 481.14C672.532 482.065 671.233 482.706 669.837 483.005C668.442 483.304 666.994 483.252 665.624 482.853C664.922 482.647 664.696 483.76 665.393 483.965C666.909 484.399 668.508 484.454 670.051 484.127C671.593 483.8 673.032 483.101 674.242 482.089C674.364 482.004 674.449 481.874 674.479 481.728C674.509 481.582 674.483 481.43 674.405 481.303C674.322 481.178 674.193 481.09 674.045 481.06C673.898 481.029 673.745 481.058 673.619 481.14V481.14Z" fill="white"/>
<path d="M595.469 529.112C595.904 529.254 596.339 529.395 596.776 529.546C602.611 531.478 608.278 533.882 613.724 536.732C614.148 536.946 614.575 537.169 614.993 537.394C628.038 544.401 639.67 553.77 649.295 565.023C653.121 569.504 656.601 574.27 659.704 579.28C663.989 586.198 668.085 594.04 674.224 598.993C674.859 599.517 675.526 600.001 676.22 600.443L716.795 589.57C716.875 589.499 716.958 589.437 717.038 589.366L718.678 589.006C718.536 588.736 718.383 588.46 718.241 588.19C718.159 588.033 718.068 587.879 717.987 587.722C717.929 587.619 717.871 587.515 717.826 587.418C717.807 587.384 717.787 587.349 717.771 587.324C717.725 587.227 717.672 587.142 717.629 587.054C716.777 585.506 715.914 583.962 715.038 582.42C715.035 582.411 715.035 582.411 715.024 582.404C708.319 570.677 700.576 559.407 691.369 549.67C691.092 549.377 690.812 549.075 690.517 548.787C686.342 544.421 681.818 540.404 676.989 536.775C674.338 534.797 671.589 532.954 668.752 531.253C661.413 526.873 653.431 523.675 645.098 521.776C628.487 517.992 610.85 519.563 596.555 528.425C596.189 528.651 595.832 528.876 595.469 529.112Z" fill="#F2F2F2"/>
<path d="M595.698 529.603C616.979 528.201 638.159 533.54 656.232 544.862C660.166 547.23 663.702 550.204 666.71 553.673C669.531 557.147 671.37 561.314 672.036 565.739C672.74 569.853 672.984 574.142 674.676 578.013C675.572 579.982 676.873 581.739 678.495 583.17C680.117 584.6 682.023 585.671 684.089 586.313C689.193 588.047 694.616 587.843 699.912 587.459C705.792 587.033 711.893 586.498 717.497 588.74C718.176 589.012 718.558 587.942 717.88 587.671C708.13 583.769 697.589 587.961 687.555 586.051C682.873 585.16 678.431 582.852 676.161 578.489C674.176 574.673 673.921 570.25 673.244 566.078C672.657 561.751 671.02 557.634 668.475 554.086C665.654 550.475 662.238 547.37 658.375 544.905C649.766 539.216 640.316 534.916 630.371 532.162C619.038 528.957 607.241 527.714 595.49 528.486C594.762 528.535 594.976 529.651 595.698 529.603V529.603Z" fill="white"/>
<path d="M650.627 540.874C652.115 537.584 652.385 533.872 651.389 530.401C650.392 526.931 648.195 523.927 645.189 521.927C644.579 521.524 643.925 522.453 644.535 522.856C647.338 524.713 649.385 527.511 650.306 530.745C651.227 533.979 650.962 537.436 649.558 540.491C649.254 541.155 650.325 541.535 650.627 540.874H650.627Z" fill="white"/>
<path d="M671.954 563.606C665.071 566.273 657.436 566.247 650.571 563.535C649.891 563.266 649.509 564.335 650.188 564.604C657.337 567.413 665.283 567.424 672.439 564.633C673.121 564.366 672.632 563.341 671.954 563.606V563.606Z" fill="white"/>
<path d="M619.238 530.449C618.928 531.842 618.276 533.136 617.342 534.215C616.408 535.294 615.22 536.124 613.886 536.631C613.201 536.889 613.691 537.914 614.371 537.658C615.843 537.091 617.153 536.173 618.188 534.983C619.223 533.793 619.95 532.368 620.307 530.832C620.353 530.69 620.343 530.536 620.279 530.401C620.215 530.267 620.103 530.161 619.964 530.106C619.822 530.056 619.666 530.064 619.53 530.129C619.395 530.193 619.289 530.308 619.238 530.449V530.449Z" fill="white"/>
<path d="M524.682 592.886C529.955 592.886 534.229 588.612 534.229 583.34C534.229 578.068 529.955 573.794 524.682 573.794C519.41 573.794 515.136 578.068 515.136 583.34C515.136 588.612 519.41 592.886 524.682 592.886Z" fill="#FD6584"/>
<path d="M558.496 430.296C563.768 430.296 568.042 426.022 568.042 420.75C568.042 415.478 563.768 411.204 558.496 411.204C553.224 411.204 548.95 415.478 548.95 420.75C548.95 426.022 553.224 430.296 558.496 430.296Z" fill="#E6E6E6"/>
<path d="M380.867 165.508C386.14 165.508 390.413 161.234 390.413 155.962C390.413 150.69 386.14 146.416 380.867 146.416C375.595 146.416 371.321 150.69 371.321 155.962C371.321 161.234 375.595 165.508 380.867 165.508Z" fill="#E6E6E6"/>
<path d="M180.826 522.146C180.826 524.576 180.906 527.006 181.076 529.416C181.256 532.296 181.566 535.156 181.986 537.996C183.397 547.558 186.095 556.886 190.006 565.726C190.205 566.166 190.405 566.606 190.606 567.046L190.906 567.706C191.006 567.926 191.116 568.146 191.216 568.356C191.356 568.646 191.486 568.926 191.626 569.206C191.796 569.556 191.966 569.906 192.146 570.256C192.166 570.296 192.186 570.346 192.216 570.396C192.366 570.696 192.506 570.986 192.666 571.286C192.695 571.351 192.728 571.414 192.766 571.476C192.936 571.816 193.116 572.166 193.296 572.506C193.496 572.866 193.686 573.236 193.886 573.596C194.366 574.486 194.866 575.366 195.376 576.246C195.526 576.506 195.676 576.766 195.836 577.026C195.976 577.266 196.116 577.506 196.266 577.746C196.366 577.906 196.466 578.076 196.566 578.236C196.726 578.506 196.886 578.766 197.056 579.036C197.426 579.626 197.806 580.216 198.176 580.806H198.186C198.356 581.076 198.536 581.346 198.716 581.606V581.616C199.246 582.416 199.796 583.216 200.346 584.006C200.347 584.006 200.348 584.006 200.349 584.006C200.351 584.007 200.352 584.008 200.353 584.008C200.354 584.009 200.354 584.011 200.355 584.012C200.355 584.013 200.356 584.014 200.356 584.016C200.796 584.656 201.256 585.276 201.706 585.896V585.906C202.006 586.296 202.296 586.696 202.596 587.086C202.836 587.406 203.086 587.736 203.336 588.056C203.386 588.126 203.446 588.186 203.496 588.256V588.266C203.566 588.356 203.636 588.436 203.706 588.526C204.766 589.886 205.859 591.216 206.986 592.516L207.166 592.726C207.226 592.796 207.296 592.866 207.356 592.946C207.456 593.056 207.546 593.166 207.646 593.276C207.736 593.386 207.836 593.496 207.936 593.606C213.809 600.221 220.468 606.095 227.766 611.096C228.736 611.766 229.726 612.416 230.716 613.046C230.966 613.206 231.216 613.366 231.466 613.516C231.536 613.566 231.616 613.616 231.686 613.666C231.826 613.746 231.956 613.826 232.096 613.916C232.226 613.996 232.356 614.076 232.496 614.156C233.026 614.486 233.566 614.806 234.106 615.126C234.236 615.206 234.376 615.286 234.516 615.366C234.646 615.436 234.786 615.516 234.926 615.596C234.926 615.606 234.926 615.606 234.936 615.606H234.946V615.616H234.956C235.626 616.006 236.306 616.386 236.996 616.756C237.366 616.956 237.746 617.166 238.126 617.356C238.986 617.826 239.856 618.276 240.726 618.706C241.036 618.856 241.356 619.006 241.666 619.166C241.926 619.286 242.186 619.416 242.446 619.536C242.526 619.576 242.596 619.606 242.666 619.646C242.886 619.746 243.096 619.846 243.316 619.946C243.556 620.056 243.796 620.166 244.026 620.276C244.296 620.396 244.556 620.516 244.826 620.626C245.826 621.076 246.836 621.506 247.846 621.916C251.465 623.399 255.164 624.681 258.926 625.756C259.096 625.806 259.276 625.856 259.456 625.906C261.066 626.356 262.686 626.766 264.316 627.136C267.166 627.796 270.042 628.336 272.946 628.756H272.966C273.316 628.806 273.656 628.856 274.006 628.906C274.036 628.906 274.066 628.916 274.106 628.916C274.106 628.926 274.106 628.926 274.116 628.916C274.496 628.966 274.886 629.016 275.266 629.066C275.292 629.073 275.319 629.077 275.346 629.076C275.706 629.126 276.076 629.166 276.436 629.206C276.826 629.246 277.216 629.286 277.606 629.326C277.906 629.356 278.206 629.386 278.506 629.416C278.531 629.425 278.559 629.428 278.586 629.426C278.856 629.446 279.126 629.476 279.396 629.496H279.436C279.666 629.516 279.906 629.536 280.136 629.556C282.926 629.776 285.726 629.876 288.566 629.876C291.636 629.876 294.686 629.756 297.696 629.496H297.726C298.376 629.436 299.016 629.376 299.656 629.316C299.826 629.296 299.986 629.286 300.156 629.266C300.186 629.266 300.226 629.256 300.256 629.256C300.306 629.246 300.356 629.246 300.416 629.236C300.443 629.237 300.47 629.233 300.496 629.226C300.716 629.206 300.936 629.176 301.166 629.156L301.916 629.066C302.166 629.036 302.416 628.996 302.666 628.966C302.726 628.956 302.776 628.956 302.836 628.946C303.016 628.926 303.196 628.896 303.376 628.866C303.466 628.856 303.556 628.846 303.636 628.836C303.816 628.806 303.986 628.786 304.166 628.756H304.176C309.663 627.966 315.08 626.745 320.376 625.106C320.656 625.016 320.936 624.936 321.216 624.846C321.226 624.846 321.236 624.836 321.246 624.836C321.326 624.806 321.416 624.786 321.496 624.756C322.246 624.516 322.986 624.266 323.726 624.006C324.746 623.666 325.756 623.296 326.766 622.916C327.036 622.806 327.306 622.706 327.576 622.596C328.126 622.386 328.666 622.166 329.206 621.946C330.126 621.576 331.046 621.186 331.956 620.786C332.806 620.406 333.646 620.026 334.486 619.626C334.506 619.616 334.536 619.616 334.556 619.596C334.746 619.506 334.936 619.416 335.116 619.326H335.126C339.731 617.116 344.172 614.579 348.416 611.736C349.776 610.826 351.116 609.886 352.436 608.916C353.496 608.126 354.536 607.326 355.576 606.506C360.706 602.425 365.456 597.886 369.766 592.946V592.936C370.076 592.596 370.366 592.246 370.666 591.896C370.716 591.846 370.756 591.796 370.796 591.756C370.986 591.526 371.166 591.306 371.356 591.086V591.076C371.606 590.786 371.856 590.486 372.096 590.186C372.156 590.116 372.206 590.056 372.256 589.996V589.986C372.456 589.746 372.646 589.506 372.846 589.256C372.946 589.136 373.036 589.016 373.136 588.896V588.886C373.726 588.146 374.296 587.406 374.866 586.646C375.016 586.446 375.166 586.236 375.326 586.026C376.046 585.056 376.746 584.066 377.426 583.076V583.066C377.686 582.696 377.936 582.316 378.196 581.946C378.446 581.566 378.696 581.186 378.946 580.806C379.196 580.406 379.456 580.016 379.706 579.616L379.736 579.556C379.986 579.176 380.236 578.776 380.476 578.386C380.666 578.066 380.856 577.756 381.046 577.446C381.166 577.236 381.296 577.026 381.416 576.806C381.463 576.738 381.506 576.668 381.546 576.596C381.826 576.106 382.106 575.616 382.386 575.126C382.716 574.556 383.036 573.976 383.356 573.396C383.476 573.156 383.606 572.916 383.736 572.676C383.786 572.596 383.826 572.516 383.866 572.436C384.016 572.156 384.166 571.866 384.306 571.576C384.456 571.296 384.606 571.006 384.756 570.716C384.896 570.436 385.046 570.146 385.186 569.856C385.296 569.636 385.396 569.416 385.506 569.196C385.513 569.178 385.523 569.161 385.536 569.146C385.586 569.036 385.636 568.936 385.676 568.836C385.688 568.821 385.698 568.804 385.706 568.786C385.816 568.566 385.916 568.336 386.026 568.116C386.166 567.826 386.296 567.526 386.436 567.236C386.526 567.036 386.626 566.826 386.716 566.616C386.846 566.326 386.986 566.036 387.106 565.736C387.246 565.436 387.376 565.136 387.506 564.826C387.543 564.751 387.576 564.674 387.606 564.596C387.676 564.456 387.726 564.316 387.786 564.176C387.946 563.806 388.106 563.426 388.256 563.056C388.436 562.636 388.606 562.206 388.766 561.786C388.926 561.396 389.076 560.996 389.226 560.596L389.286 560.456C391.616 554.319 393.383 547.983 394.566 541.526V541.516C395.233 537.829 395.71 534.111 395.996 530.376C396.006 530.166 396.026 529.966 396.036 529.766C396.216 527.236 396.296 524.696 396.296 522.146C396.296 521.016 396.276 519.896 396.246 518.776C395.548 495.352 387.195 472.802 372.466 454.576C372.146 454.176 371.826 453.776 371.496 453.376C371.166 452.976 370.826 452.586 370.496 452.196C359.533 439.358 345.708 429.275 330.134 422.761C314.56 416.247 297.673 413.483 280.835 414.693C263.997 415.902 247.679 421.051 233.196 429.725C218.713 438.398 206.47 450.353 197.456 464.626C196.966 465.406 196.476 466.196 196.006 466.986C195.526 467.786 195.066 468.586 194.606 469.396C185.546 485.499 180.8 503.669 180.826 522.146Z" fill="#F2F2F2"/>
<path d="M284.283 451.679C301.999 456.225 320.154 458.845 338.432 459.495C341.196 459.645 343.966 459.626 346.728 459.438C352.797 458.928 357.995 457.02 363.785 455.978C366.568 455.478 369.669 455.113 372.471 454.573C371.823 453.769 371.164 452.976 370.493 452.192C364.451 452.703 358.315 454.374 352.2 455.15C341.806 456.472 330.16 454.997 322.28 451.36C318.457 449.594 315.528 447.391 311.719 445.618C311.201 445.352 310.639 445.18 310.061 445.111C308.963 445.078 307.878 445.359 306.934 445.922C300.543 449.148 291.263 451.771 282.65 450.328C282.008 450.83 283.228 451.403 284.283 451.679Z" fill="white"/>
<path d="M246.169 463.034C246.09 463.02 246.011 463.009 245.932 462.995C246.263 462.79 246.575 462.555 246.863 462.294L246.169 463.034Z" fill="white"/>
<path d="M194.608 469.4C198.205 469.687 201.821 469.901 205.456 470.042C208.22 470.191 210.991 470.172 213.752 469.986C219.821 469.473 225.02 467.568 230.809 466.525C236.115 465.572 242.563 465.112 245.932 462.995C237.225 461.488 228.203 464.556 219.225 465.698C211.962 466.591 204.6 466.227 197.461 464.623C196.467 466.187 195.516 467.779 194.608 469.4Z" fill="white"/>
<path d="M238.125 617.356C238.985 617.826 239.855 618.276 240.725 618.706C241.035 618.856 241.355 619.006 241.665 619.166C241.925 619.286 242.185 619.416 242.445 619.536C242.525 619.576 242.595 619.606 242.665 619.646C242.885 619.746 243.095 619.846 243.315 619.946C243.555 620.056 243.796 620.166 244.026 620.276C244.296 620.396 244.556 620.516 244.826 620.626C245.826 621.076 246.835 621.506 247.845 621.916C251.465 623.399 255.164 624.681 258.926 625.756C259.096 625.806 259.276 625.856 259.456 625.906C261.066 626.356 262.686 626.766 264.316 627.136C267.166 627.796 270.042 628.336 272.946 628.756H272.966C273.316 628.806 273.656 628.856 274.006 628.906C274.036 628.906 274.066 628.916 274.106 628.916C274.106 628.926 274.106 628.926 274.116 628.916C274.496 628.966 274.886 629.016 275.266 629.066C275.291 629.073 275.319 629.077 275.346 629.076C275.706 629.126 276.076 629.166 276.436 629.206C276.826 629.246 277.216 629.286 277.606 629.326C277.906 629.356 278.206 629.386 278.506 629.416C278.531 629.425 278.558 629.428 278.586 629.426C278.856 629.446 279.126 629.476 279.396 629.496H279.436C279.666 629.516 279.906 629.536 280.136 629.556C282.926 629.776 285.726 629.876 288.566 629.876C291.636 629.876 294.686 629.756 297.696 629.496H297.726C298.376 629.436 299.016 629.376 299.656 629.316C299.826 629.296 299.986 629.286 300.156 629.266C300.186 629.266 300.226 629.256 300.256 629.256C300.306 629.246 300.356 629.246 300.416 629.236C300.443 629.237 300.47 629.233 300.496 629.226C300.716 629.206 300.936 629.176 301.166 629.156L301.916 629.066C302.166 629.036 302.416 628.996 302.666 628.966C302.726 628.956 302.776 628.956 302.836 628.946C303.016 628.926 303.196 628.896 303.376 628.866C303.466 628.856 303.556 628.846 303.636 628.836C303.816 628.806 303.986 628.786 304.166 628.756H304.176C309.663 627.966 315.08 626.745 320.376 625.106C320.656 625.016 320.936 624.936 321.216 624.846C319.924 618.824 317.266 613.18 313.446 608.349C309.626 603.518 304.747 599.631 299.186 596.986C300.561 595.675 301.512 593.982 301.916 592.126C302.175 590.929 302.196 589.693 301.976 588.488C301.756 587.283 301.301 586.134 300.636 585.106C299.338 583.113 297.302 581.718 294.976 581.226L280.156 578.126C277.77 577.661 275.297 578.156 273.275 579.504C271.252 580.853 269.844 582.945 269.356 585.326C269.204 586.056 269.137 586.801 269.156 587.546C254.886 597.046 244.615 606.896 238.125 617.356Z" fill="#6C63FF"/>
<path d="M281.884 572.272C298.937 572.272 312.76 558.449 312.76 541.397C312.76 524.345 298.937 510.521 281.884 510.521C264.832 510.521 251.009 524.345 251.009 541.397C251.009 558.449 264.832 572.272 281.884 572.272Z" fill="#FFB8B8"/>
<path d="M262.639 568.016C259.347 565.767 255.984 561.445 253.74 558.206C250.765 553.948 248.719 549.113 247.733 544.014C246.746 538.914 246.843 533.665 248.015 528.605C248.389 526.582 249.308 524.699 250.673 523.16C252.127 521.721 254.502 521.039 256.277 522.056C255.793 520.759 255.579 519.377 255.65 517.994C255.721 516.611 256.074 515.257 256.689 514.017C257.936 511.539 259.744 509.386 261.968 507.729C266.222 504.453 271.283 502.39 276.615 501.759C281.947 501.128 287.35 501.952 292.251 504.143C294.18 505.037 291.012 498.135 293.031 498.801C295.036 499.577 297.266 499.538 299.243 498.691C301.141 497.736 307.435 503.414 306.706 501.417C308.147 502.071 309.399 503.079 310.345 504.348C311.291 505.616 311.901 507.103 312.118 508.671C312.335 510.238 312.152 511.835 311.585 513.312C311.018 514.79 310.087 516.1 308.878 517.121C307.284 518.466 305.295 519.24 303.55 520.382C300.493 522.533 298.33 525.728 297.467 529.365C296.605 533.002 297.105 536.829 298.871 540.123C297.036 538.943 295.021 538.068 292.907 537.531C291.846 537.272 290.738 537.27 289.676 537.525C288.615 537.781 287.629 538.286 286.802 538.999C286.111 539.79 285.589 540.714 285.267 541.714C284.946 542.714 284.833 543.769 284.935 544.815C285.004 546.91 285.502 548.974 285.558 551.07C285.723 557.219 289.016 568.91 284.248 572.178C280.486 574.758 267.135 571.087 262.639 568.016Z" fill="#2F2E41"/>
<path d="M303.114 386.856C302.464 386.855 301.82 386.724 301.22 386.473C300.325 386.114 299.559 385.492 299.023 384.69C298.487 383.888 298.206 382.943 298.216 381.978V377.091C298.215 376.066 297.808 375.083 297.083 374.358C296.358 373.633 295.375 373.225 294.35 373.224C293.06 373.223 291.823 372.71 290.91 371.797C289.998 370.885 289.485 369.648 289.483 368.358V301.402C289.485 300.112 289.998 298.875 290.91 297.963C291.822 297.051 293.059 296.537 294.35 296.536H516.176C517.467 296.537 518.704 297.05 519.616 297.963C520.528 298.875 521.042 300.112 521.043 301.402V368.358C521.042 369.648 520.528 370.885 519.616 371.797C518.704 372.71 517.467 373.223 516.176 373.224H320.321C319.813 373.223 319.31 373.322 318.84 373.517C318.371 373.711 317.945 373.996 317.586 374.357L306.524 385.419C306.079 385.872 305.549 386.233 304.963 386.479C304.378 386.726 303.749 386.854 303.114 386.856V386.856Z" fill="white"/>
<path d="M303.114 387.856C302.332 387.855 301.558 387.699 300.837 387.397C299.758 386.963 298.835 386.214 298.189 385.247C297.543 384.28 297.204 383.141 297.216 381.978V377.091C297.216 376.331 296.913 375.603 296.376 375.065C295.839 374.528 295.11 374.225 294.35 374.224C292.795 374.222 291.303 373.604 290.204 372.504C289.104 371.404 288.485 369.913 288.483 368.357V301.402C288.485 299.847 289.104 298.356 290.203 297.256C291.303 296.156 292.794 295.538 294.35 295.536H516.176C517.732 295.538 519.223 296.156 520.323 297.256C521.423 298.356 522.041 299.847 522.043 301.402V368.357C522.041 369.913 521.423 371.404 520.323 372.504C519.223 373.604 517.732 374.222 516.176 374.224H320.321C319.944 374.223 319.571 374.297 319.223 374.441C318.875 374.585 318.559 374.797 318.293 375.064L307.231 386.126C306.694 386.672 306.053 387.106 305.346 387.404C304.639 387.701 303.881 387.854 303.114 387.856V387.856ZM294.35 297.536C293.325 297.537 292.342 297.945 291.617 298.67C290.892 299.395 290.484 300.377 290.483 301.402V368.357C290.484 369.382 290.892 370.365 291.617 371.09C292.342 371.815 293.325 372.223 294.35 372.224C295.64 372.226 296.877 372.739 297.79 373.652C298.702 374.564 299.215 375.801 299.216 377.091V381.978C299.217 382.743 299.443 383.49 299.868 384.126C300.293 384.762 300.897 385.257 301.604 385.55C302.31 385.842 303.087 385.919 303.837 385.77C304.587 385.62 305.276 385.252 305.817 384.712L316.879 373.65C317.33 373.197 317.866 372.837 318.457 372.592C319.048 372.348 319.681 372.222 320.321 372.224H516.176C517.202 372.223 518.185 371.815 518.909 371.09C519.634 370.365 520.042 369.382 520.043 368.357V301.402C520.042 300.377 519.634 299.394 518.909 298.669C518.184 297.945 517.201 297.537 516.176 297.536L294.35 297.536Z" fill="#3F3D56"/>
<path d="M497.114 326.848H317.236C316.549 326.848 315.89 326.575 315.404 326.089C314.918 325.604 314.645 324.945 314.645 324.257C314.645 323.57 314.918 322.911 315.404 322.425C315.89 321.94 316.549 321.667 317.236 321.667H497.114C497.801 321.667 498.46 321.94 498.946 322.425C499.432 322.911 499.705 323.57 499.705 324.257C499.705 324.945 499.432 325.604 498.946 326.089C498.46 326.575 497.801 326.848 497.114 326.848Z" fill="#6C63FF"/>
<path d="M496.784 337.855H317.236C316.549 337.855 315.89 337.582 315.404 337.096C314.918 336.61 314.645 335.951 314.645 335.264C314.645 334.577 314.918 333.918 315.404 333.432C315.89 332.946 316.549 332.673 317.236 332.673H496.784C497.471 332.673 498.13 332.946 498.616 333.432C499.102 333.918 499.374 334.577 499.374 335.264C499.374 335.951 499.102 336.61 498.616 337.096C498.13 337.582 497.471 337.855 496.784 337.855V337.855Z" fill="#E6E6E6"/>
<path d="M496.605 348.861H317.236C316.549 348.861 315.89 348.588 315.404 348.103C314.918 347.617 314.645 346.958 314.645 346.271C314.645 345.584 314.918 344.925 315.404 344.439C315.89 343.953 316.549 343.68 317.236 343.68H496.605C497.292 343.68 497.951 343.953 498.437 344.439C498.923 344.925 499.196 345.584 499.196 346.271C499.196 346.958 498.923 347.617 498.437 348.103C497.951 348.588 497.292 348.861 496.605 348.861V348.861Z" fill="#E6E6E6"/>
<path d="M780.385 286.146C780.385 288.576 780.305 291.006 780.135 293.416C779.955 296.296 779.646 299.156 779.226 301.996C777.814 311.558 775.116 320.886 771.206 329.726C771.006 330.166 770.806 330.606 770.606 331.046L770.305 331.706C770.205 331.926 770.095 332.146 769.995 332.356C769.855 332.646 769.726 332.926 769.586 333.206C769.416 333.556 769.245 333.906 769.065 334.256C769.045 334.296 769.025 334.346 768.995 334.396C768.845 334.696 768.706 334.986 768.546 335.286C768.516 335.351 768.483 335.414 768.445 335.476C768.275 335.816 768.096 336.166 767.916 336.506C767.716 336.866 767.526 337.236 767.326 337.596C766.846 338.486 766.346 339.366 765.836 340.246C765.686 340.506 765.535 340.766 765.375 341.026C765.235 341.266 765.095 341.506 764.945 341.746C764.845 341.906 764.745 342.076 764.645 342.236C764.485 342.506 764.325 342.766 764.155 343.036C763.785 343.626 763.405 344.216 763.035 344.806H763.025C762.855 345.076 762.675 345.346 762.495 345.606V345.616C761.965 346.416 761.415 347.216 760.865 348.006C760.864 348.006 760.863 348.006 760.862 348.006C760.86 348.007 760.859 348.008 760.858 348.008C760.857 348.009 760.857 348.01 760.856 348.012C760.856 348.013 760.855 348.014 760.855 348.016C760.415 348.656 759.955 349.276 759.505 349.896V349.906C759.205 350.296 758.915 350.696 758.615 351.086C758.375 351.406 758.125 351.736 757.875 352.056C757.825 352.126 757.765 352.186 757.715 352.256V352.266C757.645 352.356 757.575 352.436 757.505 352.526C756.445 353.886 755.352 355.216 754.225 356.516L754.045 356.726C753.985 356.796 753.915 356.866 753.855 356.946C753.755 357.056 753.665 357.166 753.565 357.276C753.475 357.386 753.375 357.496 753.275 357.606C747.402 364.221 740.743 370.095 733.445 375.096C732.475 375.766 731.485 376.416 730.495 377.046C730.245 377.206 729.995 377.366 729.745 377.516C729.675 377.566 729.595 377.616 729.525 377.666C729.385 377.746 729.255 377.826 729.115 377.916C728.985 377.996 728.855 378.076 728.715 378.156C728.185 378.486 727.645 378.806 727.105 379.126C726.975 379.206 726.835 379.286 726.695 379.366C726.565 379.436 726.425 379.516 726.285 379.596C726.285 379.606 726.285 379.606 726.275 379.606H726.265V379.616H726.255C725.585 380.006 724.905 380.386 724.215 380.756C723.845 380.956 723.465 381.166 723.085 381.356C722.225 381.826 721.355 382.276 720.485 382.706C720.175 382.856 719.855 383.006 719.545 383.166C719.285 383.286 719.025 383.416 718.765 383.536C718.685 383.576 718.615 383.606 718.545 383.646C718.325 383.746 718.115 383.846 717.895 383.946C717.655 384.056 717.415 384.166 717.185 384.276C716.915 384.396 716.655 384.516 716.385 384.626C715.385 385.076 714.375 385.506 713.365 385.916C709.746 387.399 706.047 388.681 702.285 389.756C702.115 389.806 701.935 389.856 701.755 389.906C700.145 390.356 698.525 390.766 696.895 391.136C694.045 391.796 691.169 392.336 688.265 392.756H688.245C687.895 392.806 687.555 392.856 687.205 392.906C687.175 392.906 687.145 392.916 687.105 392.916C687.105 392.926 687.105 392.926 687.095 392.916C686.715 392.966 686.325 393.016 685.945 393.066C685.919 393.073 685.892 393.077 685.865 393.076C685.505 393.126 685.135 393.166 684.775 393.206C684.385 393.246 683.995 393.286 683.605 393.326C683.305 393.356 683.005 393.386 682.705 393.416C682.68 393.424 682.652 393.428 682.625 393.426C682.355 393.446 682.085 393.476 681.815 393.496H681.775C681.545 393.516 681.305 393.536 681.075 393.556C678.285 393.776 675.485 393.876 672.645 393.876C669.575 393.876 666.525 393.756 663.515 393.496H663.485C662.835 393.436 662.195 393.376 661.555 393.316C661.385 393.296 661.225 393.286 661.055 393.266C661.025 393.266 660.985 393.256 660.955 393.256C660.905 393.246 660.855 393.246 660.795 393.236C660.768 393.237 660.741 393.233 660.715 393.226C660.495 393.206 660.275 393.176 660.045 393.156L659.295 393.066C659.045 393.036 658.795 392.996 658.545 392.966C658.485 392.956 658.435 392.956 658.375 392.946C658.195 392.926 658.015 392.896 657.835 392.866C657.745 392.856 657.655 392.846 657.575 392.836C657.395 392.806 657.225 392.786 657.045 392.756H657.035C651.548 391.966 646.131 390.745 640.835 389.106C640.555 389.016 640.275 388.936 639.995 388.846C639.985 388.846 639.975 388.836 639.965 388.836C639.885 388.806 639.795 388.786 639.715 388.756C638.965 388.516 638.225 388.266 637.485 388.006C636.465 387.666 635.455 387.296 634.445 386.916C634.175 386.806 633.905 386.706 633.635 386.596C633.085 386.386 632.545 386.166 632.005 385.946C631.085 385.576 630.165 385.186 629.255 384.786C628.405 384.406 627.565 384.026 626.725 383.626C626.705 383.616 626.675 383.616 626.655 383.596C626.465 383.506 626.275 383.416 626.095 383.326H626.085C621.48 381.116 617.039 378.579 612.795 375.736C611.435 374.826 610.095 373.886 608.775 372.916C607.715 372.126 606.675 371.326 605.635 370.506C600.505 366.425 595.755 361.886 591.445 356.946V356.936C591.135 356.596 590.845 356.246 590.545 355.896C590.495 355.846 590.455 355.796 590.415 355.756C590.225 355.526 590.045 355.306 589.855 355.086V355.076C589.605 354.786 589.355 354.486 589.115 354.186C589.055 354.116 589.005 354.056 588.955 353.996V353.986C588.755 353.746 588.565 353.506 588.365 353.256C588.265 353.136 588.175 353.016 588.075 352.896V352.886C587.485 352.146 586.915 351.406 586.345 350.646C586.195 350.446 586.045 350.236 585.885 350.026C585.165 349.056 584.465 348.066 583.785 347.076V347.066C583.525 346.696 583.275 346.316 583.015 345.946C582.765 345.566 582.515 345.186 582.265 344.806C582.015 344.406 581.755 344.016 581.505 343.616L581.475 343.556C581.225 343.176 580.975 342.776 580.735 342.386C580.545 342.066 580.355 341.756 580.165 341.446C580.045 341.236 579.915 341.026 579.795 340.806C579.748 340.738 579.705 340.668 579.665 340.596C579.385 340.106 579.105 339.616 578.825 339.126C578.495 338.556 578.175 337.976 577.855 337.396C577.735 337.156 577.605 336.916 577.475 336.676C577.425 336.596 577.385 336.516 577.345 336.436C577.195 336.156 577.045 335.866 576.905 335.576C576.755 335.296 576.605 335.006 576.455 334.716C576.315 334.436 576.165 334.146 576.025 333.856C575.915 333.636 575.815 333.416 575.705 333.196C575.698 333.178 575.688 333.161 575.675 333.146C575.625 333.036 575.575 332.936 575.535 332.836C575.523 332.82 575.513 332.804 575.505 332.786C575.395 332.566 575.295 332.336 575.185 332.116C575.045 331.826 574.915 331.526 574.775 331.236C574.685 331.036 574.585 330.826 574.495 330.616C574.365 330.326 574.225 330.036 574.105 329.736C573.965 329.436 573.835 329.136 573.705 328.826C573.668 328.751 573.635 328.674 573.605 328.596C573.535 328.456 573.485 328.316 573.425 328.176C573.265 327.806 573.105 327.426 572.955 327.056C572.775 326.636 572.605 326.206 572.445 325.786C572.285 325.396 572.135 324.996 571.985 324.596L571.925 324.456C569.595 318.319 567.828 311.983 566.645 305.526V305.516C565.978 301.829 565.501 298.111 565.215 294.376C565.205 294.166 565.185 293.966 565.175 293.766C564.995 291.236 564.915 288.696 564.915 286.146C564.915 285.016 564.935 283.896 564.965 282.776C565.663 259.352 574.016 236.802 588.745 218.576C589.065 218.176 589.385 217.776 589.715 217.376C590.045 216.976 590.385 216.586 590.715 216.196C601.678 203.358 615.503 193.275 631.077 186.761C646.651 180.247 663.538 177.483 680.376 178.693C697.214 179.902 713.532 185.051 728.015 193.724C742.498 202.398 754.741 214.353 763.755 228.626C764.245 229.406 764.735 230.196 765.205 230.986C765.685 231.786 766.145 232.586 766.605 233.396C775.665 249.499 780.411 267.669 780.385 286.146V286.146Z" fill="#F2F2F2"/>
<path d="M676.928 215.679C659.212 220.225 641.057 222.845 622.779 223.495C620.015 223.645 617.245 223.626 614.483 223.438C608.414 222.928 603.216 221.02 597.426 219.978C594.643 219.478 591.542 219.113 588.74 218.573C589.388 217.769 590.047 216.976 590.718 216.192C596.76 216.703 602.896 218.374 609.011 219.15C619.405 220.472 631.051 218.997 638.931 215.36C642.754 213.594 645.683 211.391 649.492 209.618C650.01 209.352 650.572 209.18 651.15 209.111C652.248 209.078 653.333 209.359 654.277 209.922C660.668 213.148 669.948 215.771 678.561 214.328C679.203 214.83 677.983 215.403 676.928 215.679Z" fill="white"/>
<path d="M715.042 227.034C715.121 227.02 715.2 227.009 715.279 226.995C714.948 226.79 714.636 226.555 714.348 226.294L715.042 227.034Z" fill="white"/>
<path d="M766.603 233.4C763.006 233.688 759.39 233.902 755.755 234.042C752.991 234.191 750.22 234.173 747.459 233.986C741.39 233.473 736.191 231.568 730.402 230.525C725.096 229.572 718.648 229.112 715.279 226.995C723.986 225.488 733.007 228.556 741.986 229.698C749.249 230.591 756.611 230.227 763.75 228.623C764.744 230.187 765.695 231.779 766.603 233.4Z" fill="white"/>
<path d="M660.5 333.287C678.371 333.287 692.859 318.477 692.859 300.207C692.859 281.938 678.371 267.128 660.5 267.128C642.629 267.128 628.142 281.938 628.142 300.207C628.142 318.477 642.629 333.287 660.5 333.287Z" fill="#FFB6B6"/>
<path d="M723.085 381.356C722.225 381.826 721.355 382.276 720.485 382.706C720.175 382.856 719.855 383.006 719.545 383.166C719.285 383.286 719.025 383.416 718.765 383.536C718.685 383.576 718.615 383.606 718.545 383.646C718.325 383.746 718.115 383.846 717.895 383.946C717.655 384.056 717.415 384.166 717.185 384.276C716.915 384.396 716.655 384.516 716.385 384.626C715.385 385.076 714.375 385.506 713.365 385.916C709.746 387.399 706.047 388.681 702.285 389.756C702.115 389.806 701.935 389.856 701.755 389.906C700.145 390.356 698.525 390.766 696.895 391.136C694.045 391.796 691.169 392.336 688.265 392.756H688.245C687.895 392.806 687.555 392.856 687.205 392.906C687.175 392.906 687.145 392.916 687.105 392.916C687.105 392.926 687.105 392.926 687.095 392.916C686.715 392.966 686.325 393.016 685.945 393.066C685.919 393.073 685.892 393.077 685.865 393.076C685.505 393.126 685.135 393.166 684.775 393.206C684.385 393.246 683.995 393.286 683.605 393.326C683.305 393.356 683.005 393.386 682.705 393.416C682.68 393.424 682.652 393.428 682.625 393.426C682.355 393.446 682.085 393.476 681.815 393.496H681.775C681.545 393.516 681.305 393.536 681.075 393.556C678.285 393.776 675.485 393.876 672.645 393.876C669.575 393.876 666.525 393.756 663.515 393.496H663.485C662.835 393.436 662.195 393.376 661.555 393.316C661.385 393.296 661.225 393.286 661.055 393.266C661.025 393.266 660.985 393.256 660.955 393.256C660.905 393.246 660.855 393.246 660.795 393.236C660.768 393.237 660.741 393.233 660.715 393.226C660.495 393.206 660.275 393.176 660.045 393.156L659.295 393.066C659.045 393.036 658.795 392.996 658.545 392.966C658.485 392.956 658.435 392.956 658.375 392.946C658.195 392.926 658.015 392.896 657.835 392.866C657.745 392.856 657.655 392.846 657.575 392.836C657.395 392.806 657.225 392.786 657.045 392.756H657.035C651.548 391.966 646.131 390.745 640.835 389.106C640.555 389.016 640.275 388.936 639.995 388.846C641.287 382.824 643.945 377.18 647.765 372.349C651.584 367.518 656.464 363.63 662.025 360.986C660.65 359.675 659.699 357.982 659.295 356.126C659.036 354.929 659.015 353.693 659.235 352.488C659.455 351.283 659.91 350.134 660.575 349.106C661.873 347.113 663.909 345.717 666.235 345.226L681.055 342.126C683.441 341.661 685.914 342.156 687.936 343.504C689.959 344.853 691.367 346.945 691.855 349.326C692.007 350.056 692.074 350.8 692.055 351.546C706.325 361.046 716.595 370.896 723.085 381.356Z" fill="#6C63FF"/>
<path d="M747.088 285.861C741.588 279.447 738.973 270.937 734.576 263.653C730.179 256.369 722.527 249.85 714.443 251.545C708.871 252.714 704.565 257.631 702.384 263.113C700.205 268.595 699.796 274.641 699.414 280.563C699.549 268.392 691.53 256.593 680.484 252.709C669.439 248.826 656.22 253.158 649.279 262.936C646.25 260.128 642.297 258.53 638.168 258.443C634.039 258.357 630.022 259.788 626.878 262.466C620.669 268.014 619.295 278.575 623.861 285.653C628.427 292.73 638.315 295.367 645.571 291.442L648.136 293.801C646.692 298.852 649.492 304.817 654.199 306.718C658.016 308.26 663.404 308.003 664.833 312.009C665.831 314.807 663.965 317.795 661.981 319.945C659.997 322.096 657.641 324.317 657.402 327.293C657.042 331.784 661.683 334.929 665.901 335.876C676.072 338.161 687.358 333.451 693.221 324.474C693.334 324.301 693.457 324.128 693.589 323.954C696.878 319.748 699.275 314.916 700.634 309.752C701.992 304.588 702.283 299.201 701.49 293.921C701.16 291.846 701.492 290.303 702.923 289.812C709.105 287.688 726.427 292.145 731.669 296.174C736.912 300.202 741.11 305.533 746.159 309.822C751.209 314.11 757.644 317.418 764.055 316.25C769.19 315.315 773.559 311.587 776.497 307.09C779.435 302.593 781.126 297.352 782.641 292.143C771.286 298.702 755.746 295.956 747.088 285.861Z" fill="#2F2E41"/>
<path d="M82.8255 219.146C82.8255 221.576 82.9055 224.006 83.0755 226.416C83.2555 229.296 83.5655 232.156 83.9855 234.996C85.397 244.558 88.0948 253.886 92.0055 262.726C92.2055 263.166 92.4055 263.606 92.6055 264.046L92.9055 264.706C93.0055 264.926 93.1155 265.146 93.2155 265.356C93.3555 265.646 93.4855 265.926 93.6255 266.206C93.7955 266.556 93.9655 266.906 94.1455 267.256C94.1655 267.296 94.1855 267.346 94.2155 267.396C94.3655 267.696 94.5055 267.986 94.6655 268.286C94.6949 268.351 94.7283 268.414 94.7655 268.476C94.9355 268.816 95.1155 269.166 95.2955 269.506C95.4955 269.866 95.6855 270.236 95.8855 270.596C96.3655 271.486 96.8655 272.366 97.3755 273.246C97.5255 273.506 97.6755 273.766 97.8355 274.026C97.9755 274.266 98.1155 274.506 98.2655 274.746C98.3655 274.906 98.4655 275.076 98.5655 275.236C98.7255 275.506 98.8855 275.766 99.0555 276.036C99.4255 276.626 99.8055 277.216 100.176 277.806H100.186C100.356 278.076 100.536 278.346 100.716 278.606V278.616C101.246 279.416 101.796 280.216 102.346 281.006C102.347 281.006 102.348 281.006 102.349 281.006C102.351 281.007 102.352 281.008 102.353 281.008C102.354 281.009 102.354 281.01 102.355 281.012C102.355 281.013 102.356 281.014 102.356 281.016C102.796 281.656 103.256 282.276 103.706 282.896V282.906C104.006 283.296 104.296 283.696 104.596 284.086C104.836 284.406 105.086 284.736 105.336 285.056C105.386 285.125 105.446 285.186 105.496 285.256V285.266C105.566 285.356 105.636 285.436 105.706 285.526C106.766 286.886 107.859 288.216 108.986 289.516L109.166 289.726C109.226 289.796 109.296 289.866 109.356 289.946C109.456 290.056 109.546 290.166 109.646 290.276C109.736 290.386 109.836 290.496 109.936 290.606C115.809 297.221 122.468 303.095 129.766 308.096C130.736 308.766 131.726 309.416 132.716 310.046C132.966 310.206 133.216 310.366 133.466 310.516C133.536 310.566 133.616 310.616 133.686 310.666C133.826 310.746 133.956 310.826 134.096 310.916C134.226 310.996 134.356 311.076 134.496 311.156C135.026 311.486 135.566 311.806 136.106 312.126C136.236 312.206 136.376 312.286 136.516 312.366C136.646 312.436 136.786 312.516 136.926 312.596C136.926 312.606 136.926 312.606 136.936 312.606H136.946V312.616H136.956C137.626 313.006 138.306 313.386 138.996 313.756C139.366 313.956 139.746 314.166 140.126 314.356C140.986 314.826 141.856 315.276 142.726 315.706C143.036 315.856 143.356 316.006 143.666 316.166C143.926 316.286 144.186 316.416 144.446 316.536C144.526 316.576 144.596 316.606 144.666 316.646C144.886 316.746 145.096 316.846 145.316 316.946C145.556 317.056 145.796 317.166 146.026 317.276C146.296 317.396 146.556 317.516 146.826 317.626C147.826 318.076 148.836 318.506 149.846 318.916C153.465 320.399 157.164 321.681 160.926 322.756C161.096 322.806 161.276 322.856 161.456 322.906C163.066 323.356 164.686 323.766 166.316 324.136C169.166 324.796 172.042 325.336 174.946 325.756H174.966C175.316 325.806 175.656 325.856 176.006 325.906C176.036 325.906 176.066 325.916 176.106 325.916C176.106 325.926 176.106 325.926 176.116 325.916C176.496 325.966 176.886 326.016 177.266 326.066C177.292 326.073 177.319 326.077 177.346 326.076C177.706 326.126 178.076 326.166 178.436 326.206C178.826 326.246 179.216 326.286 179.606 326.326C179.906 326.356 180.206 326.386 180.506 326.416C180.531 326.424 180.559 326.428 180.586 326.426C180.856 326.446 181.126 326.476 181.396 326.496H181.436C181.666 326.516 181.906 326.536 182.136 326.556C184.926 326.776 187.726 326.876 190.566 326.876C193.636 326.876 196.686 326.756 199.696 326.496H199.726C200.376 326.436 201.016 326.376 201.656 326.316C201.826 326.296 201.986 326.286 202.156 326.266C202.186 326.266 202.226 326.256 202.256 326.256C202.306 326.246 202.356 326.246 202.416 326.236C202.443 326.237 202.47 326.233 202.496 326.226C202.716 326.206 202.936 326.176 203.166 326.156L203.916 326.066C204.166 326.036 204.416 325.996 204.666 325.966C204.726 325.956 204.776 325.956 204.836 325.946C205.016 325.926 205.196 325.896 205.376 325.866C205.466 325.856 205.556 325.846 205.636 325.836C205.816 325.806 205.986 325.786 206.166 325.756H206.176C211.663 324.966 217.08 323.745 222.376 322.106C222.656 322.016 222.936 321.936 223.216 321.846C223.226 321.846 223.236 321.836 223.246 321.836C223.326 321.806 223.416 321.786 223.496 321.756C224.246 321.516 224.986 321.266 225.726 321.006C226.746 320.666 227.756 320.296 228.766 319.916C229.036 319.806 229.306 319.706 229.576 319.596C230.126 319.386 230.666 319.166 231.206 318.946C232.126 318.576 233.046 318.186 233.956 317.786C234.806 317.406 235.646 317.026 236.486 316.626C236.506 316.616 236.536 316.616 236.556 316.596C236.746 316.506 236.936 316.416 237.116 316.326H237.126C241.731 314.116 246.172 311.579 250.416 308.736C251.776 307.826 253.116 306.886 254.436 305.916C255.496 305.126 256.536 304.326 257.576 303.506C262.706 299.425 267.456 294.886 271.766 289.946V289.936C272.076 289.596 272.366 289.246 272.666 288.896C272.716 288.846 272.756 288.796 272.796 288.756C272.986 288.526 273.166 288.306 273.356 288.086V288.076C273.606 287.786 273.856 287.486 274.096 287.186C274.156 287.116 274.206 287.056 274.256 286.996V286.986C274.456 286.746 274.646 286.506 274.846 286.256C274.946 286.136 275.036 286.016 275.136 285.896V285.886C275.726 285.146 276.296 284.406 276.866 283.646C277.016 283.446 277.166 283.236 277.326 283.026C278.046 282.056 278.746 281.066 279.426 280.076V280.066C279.686 279.696 279.936 279.316 280.196 278.946C280.446 278.566 280.696 278.186 280.946 277.806C281.196 277.406 281.456 277.016 281.706 276.616L281.736 276.556C281.986 276.176 282.236 275.776 282.476 275.386C282.666 275.066 282.856 274.756 283.046 274.446C283.166 274.236 283.296 274.026 283.416 273.806C283.462 273.738 283.506 273.668 283.546 273.596C283.826 273.106 284.106 272.616 284.386 272.126C284.716 271.556 285.036 270.976 285.356 270.396C285.476 270.156 285.606 269.916 285.736 269.676C285.786 269.596 285.826 269.516 285.866 269.436C286.016 269.156 286.166 268.866 286.306 268.576C286.456 268.296 286.606 268.006 286.756 267.716C286.896 267.436 287.046 267.146 287.186 266.856C287.296 266.636 287.396 266.416 287.506 266.196C287.513 266.178 287.523 266.161 287.536 266.146C287.586 266.036 287.636 265.936 287.676 265.836C287.688 265.82 287.698 265.804 287.706 265.786C287.816 265.566 287.916 265.336 288.026 265.116C288.166 264.826 288.296 264.526 288.436 264.236C288.526 264.036 288.626 263.826 288.716 263.616C288.846 263.326 288.986 263.036 289.106 262.736C289.246 262.436 289.376 262.136 289.506 261.826C289.543 261.751 289.576 261.674 289.606 261.596C289.676 261.456 289.726 261.316 289.786 261.176C289.946 260.806 290.106 260.426 290.256 260.056C290.436 259.636 290.606 259.206 290.766 258.786C290.926 258.396 291.076 257.996 291.226 257.596L291.286 257.456C293.616 251.319 295.383 244.983 296.566 238.526V238.516C297.233 234.829 297.71 231.111 297.996 227.376C298.006 227.166 298.026 226.966 298.036 226.766C298.216 224.236 298.296 221.696 298.296 219.146C298.296 218.016 298.276 216.896 298.246 215.776C297.548 192.352 289.195 169.802 274.466 151.576C274.146 151.176 273.826 150.776 273.496 150.376C273.166 149.976 272.826 149.586 272.496 149.196C261.533 136.358 247.708 126.275 232.134 119.761C216.56 113.247 199.673 110.483 182.835 111.693C165.997 112.902 149.679 118.051 135.196 126.724C120.713 135.398 108.47 147.353 99.4556 161.626C98.9656 162.406 98.4756 163.196 98.0056 163.986C97.5256 164.786 97.0656 165.586 96.6056 166.396C87.5462 182.499 82.7996 200.669 82.8255 219.146V219.146Z" fill="#F2F2F2"/>
<path d="M186.283 148.679C203.999 153.225 222.154 155.845 240.432 156.495C243.196 156.645 245.966 156.626 248.728 156.438C254.797 155.928 259.995 154.02 265.785 152.978C268.568 152.478 271.669 152.113 274.471 151.573C273.823 150.769 273.164 149.976 272.493 149.192C266.451 149.703 260.315 151.374 254.2 152.15C243.806 153.472 232.16 151.997 224.28 148.36C220.457 146.594 217.528 144.391 213.719 142.618C213.201 142.352 212.639 142.18 212.061 142.111C210.963 142.078 209.878 142.359 208.934 142.922C202.543 146.148 193.263 148.771 184.65 147.328C184.008 147.83 185.228 148.403 186.283 148.679Z" fill="white"/>
<path d="M148.169 160.034C148.09 160.02 148.011 160.009 147.932 159.995C148.263 159.79 148.575 159.555 148.863 159.294L148.169 160.034Z" fill="white"/>
<path d="M96.6077 166.4C100.205 166.688 103.821 166.902 107.456 167.042C110.22 167.191 112.991 167.173 115.752 166.986C121.821 166.473 127.02 164.568 132.809 163.525C138.115 162.572 144.563 162.112 147.932 159.995C139.225 158.488 130.203 161.556 121.225 162.698C113.962 163.591 106.6 163.227 99.4608 161.623C98.4668 163.187 97.5157 164.779 96.6077 166.4Z" fill="white"/>
<path d="M140.125 314.356C140.985 314.826 141.855 315.276 142.725 315.706C143.035 315.856 143.355 316.006 143.665 316.166C143.925 316.286 144.185 316.416 144.445 316.536C144.525 316.576 144.595 316.606 144.665 316.646C144.885 316.746 145.095 316.846 145.315 316.946C145.555 317.056 145.796 317.166 146.026 317.276C146.296 317.396 146.556 317.516 146.826 317.626C147.826 318.076 148.835 318.506 149.845 318.916C153.465 320.399 157.164 321.681 160.926 322.756C161.096 322.806 161.276 322.856 161.456 322.906C163.066 323.356 164.686 323.766 166.316 324.136C169.166 324.796 172.042 325.336 174.946 325.756H174.966C175.316 325.806 175.656 325.856 176.006 325.906C176.036 325.906 176.066 325.916 176.106 325.916C176.106 325.926 176.106 325.926 176.116 325.916C176.496 325.966 176.886 326.016 177.266 326.066C177.291 326.073 177.319 326.077 177.346 326.076C177.706 326.126 178.076 326.166 178.436 326.206C178.826 326.246 179.216 326.286 179.606 326.326C179.906 326.356 180.206 326.386 180.506 326.416C180.531 326.425 180.558 326.428 180.586 326.426C180.856 326.446 181.126 326.476 181.396 326.496H181.436C181.666 326.516 181.906 326.536 182.136 326.556C184.926 326.776 187.726 326.876 190.566 326.876C193.636 326.876 196.686 326.756 199.696 326.496H199.726C200.376 326.436 201.016 326.376 201.656 326.316C201.826 326.296 201.986 326.286 202.156 326.266C202.186 326.266 202.226 326.256 202.256 326.256C202.306 326.246 202.356 326.246 202.416 326.236C202.443 326.237 202.47 326.233 202.496 326.226C202.716 326.206 202.936 326.176 203.166 326.156L203.916 326.066C204.166 326.036 204.416 325.996 204.666 325.966C204.726 325.956 204.776 325.956 204.836 325.946C205.016 325.926 205.196 325.896 205.376 325.866C205.466 325.856 205.556 325.846 205.636 325.836C205.816 325.806 205.986 325.786 206.166 325.756H206.176C211.663 324.966 217.08 323.745 222.376 322.106C222.656 322.016 222.936 321.936 223.216 321.846C221.924 315.824 219.266 310.18 215.446 305.349C211.626 300.518 206.747 296.63 201.186 293.986C202.561 292.675 203.512 290.982 203.916 289.126C204.175 287.929 204.196 286.693 203.976 285.488C203.756 284.283 203.301 283.134 202.636 282.106C201.338 280.113 199.302 278.717 196.976 278.226L182.156 275.126C179.77 274.661 177.297 275.156 175.275 276.504C173.252 277.853 171.844 279.945 171.356 282.326C171.204 283.056 171.137 283.8 171.156 284.546C156.886 294.046 146.615 303.896 140.125 314.356Z" fill="#6C63FF"/>
<path d="M198.754 265.122C218.677 265.122 234.827 248.971 234.827 229.049C234.827 209.126 218.677 192.976 198.754 192.976C178.831 192.976 162.681 209.126 162.681 229.049C162.681 248.971 178.831 265.122 198.754 265.122Z" fill="#9E616A"/>
<path d="M193.628 263.194C184.597 265.633 174.641 262.39 167.593 256.239C160.545 250.088 156.137 241.372 153.596 232.369C151.736 225.776 150.854 218.456 153.79 212.266C156.726 206.076 164.627 201.9 170.723 205.027C166.962 200.645 168.841 193.399 173.233 189.651C177.625 185.903 183.656 184.828 189.4 184.241C197.736 183.388 206.346 183.293 214.278 185.994C222.211 188.694 229.418 194.598 231.9 202.602C234.436 203.782 237.291 204.089 240.02 203.473C242.748 202.857 245.195 201.353 246.977 199.198C247.437 201.673 247.068 204.231 245.927 206.476C244.786 208.72 242.938 210.527 240.667 211.615L252.821 207.675C254.911 212.099 251.249 217.575 246.565 218.991C241.882 220.408 236.826 218.86 232.381 216.813C227.937 214.766 223.63 212.178 218.802 211.38C213.975 210.581 208.304 212.133 206.071 216.486C204.901 218.767 204.84 221.438 204.161 223.909C203.482 226.38 201.762 228.942 199.207 229.145C197.593 229.272 196.012 228.413 194.403 228.588C193.415 228.783 192.505 229.261 191.785 229.965C191.065 230.669 190.566 231.567 190.348 232.55C189.948 234.523 189.943 236.555 190.334 238.53L193.421 262.128L193.628 263.194Z" fill="#2F2E41"/>
</g>
<defs>
<clipPath id="clip0_1:144">
<rect width="809.342" height="629.876" fill="white"/>
</clipPath>
</defs>
</svg>
